<svg version="1.2" xmlns="http://www.w3.org/2000/svg" viewBox="0 0 48 48" width="48" height="48">
	<style>
		.s0 { fill: #18171a } 
	</style>
	<g id="Layer 1">
		<path id="Path 1" class="s0" d="m11 38h15v-5h5v5h15v5h-35z"/>
		<path id="Path 2" class="s0" d="m11 38h-5v-5h5z"/>
		<path id="Path 3" class="s0" d="m31 33v-5h5v5z"/>
		<path id="Path 4" class="s0" d="m6 33h-5v-5h5z"/>
		<path id="Path 5" class="s0" d="m36 28v-5h5v5z"/>
		<path id="Path 6" class="s0" d="m31 28h-5v-5h5z"/>
		<path id="Path 7" class="s0" d="m6 28v-5h5v5z"/>
		<path id="Path 8" class="s0" d="m41 23v-5h5v5z"/>
		<path id="Path 9" class="s0" d="m26 23h-5v-5h5z"/>
		<path id="Path 11" class="s0" d="m11 23v-5h5v5z"/>
		<path id="Path 12" class="s0" d="m41 18h-5v-5h5z"/>
		<path id="Path 13" class="s0" d="m16 18v-5h5v5z"/>
		<path id="Path 14" class="s0" d="m36 13h-5v-5h5z"/>
		<path id="Path 16" class="s0" d="m21 13v-5h5v5z"/>
		<path id="Path 17" class="s0" d="m26 8v-5h5v5z"/>
	</g>
</svg>